# xmcd CD database file
#
# Track frame offsets:
#	150
#	15428
#	32681
#	40799
#	61943
#	75484
#	85731
#	100400
#	116525
#	135845
#	150602
#	161574
#
# Disc length: 2334 seconds
#
# Revision: 0
# Processed by: cddbd v1.5.2PL0 Copyright (c) Steve Scherf et al.
# Submitted via: CDex 1.70beta2
#
DISCID=7e091c0c
DTITLE=Sonny Landreth - Blues Attack
DYEAR=1996
DGENRE=Blues
TTITLE0=Frisco Bay
TTITLE1=The Center
TTITLE2=One Life
TTITLE3=Black, White and Blue
TTITLE4=Names
TTITLE5=Blues Attack
TTITLE6=Speak Of The Devil
TTITLE7=Key To The Highway
TTITLE8=At Some Time
TTITLE9=Baby Please Don't Go
TTITLE10=Pine Grove Blues
TTITLE11=I'm Ready
EXTD=YEAR: 1996
EXTT0=
EXTT1=
EXTT2=
EXTT3=
EXTT4=
EXTT5=
EXTT6=
EXTT7=
EXTT8=
EXTT9=
EXTT10=
EXTT11=
PLAYORDER=
